<svg xmlns="http://www.w3.org/2000/svg" viewBox="0 0 218 152"><path fill="#3c3b39" d="M152.4 9.4c-38.3.7-82.8-4.6-82.8-4.6-3.9 15.3-1.8 85.1-1.8 85.1 24.2-.9 82.8 3.7 82.8 3.7-1.9-54.8 1.8-84.2 1.8-84.2zM95.9 75.3c-2.8 0-5.1-2-5.1-4.5s2.3-4.5 5.1-4.5 5.1 2 5.1 4.5-2.3 4.5-5.1 4.5zm18.7 1c-2.8 0-5.1-2-5.1-4.5s2.3-4.5 5.1-4.5 5.1 2 5.1 4.5-2.3 4.5-5.1 4.5zm30.4-44c-.5.1-6.4 0-6.4 0s-15.8 30.6-16.1 31.2c-.3.7-1 1.3-2.2 1.4s-29.6-1.1-30.6-1.3-1.6 0-2.9-2.3-13.4-23.7-13.4-25c0-1.6.9-2.3 1.9-2.2 4.4.1 45.2 2.2 48.1 2.3s3.7.9 3.6 2.7c-.1 1.3-1.1 1.6-1.7 1.7h-.3.3c-.9-.2-44.6-1.7-44.6-1.7l10.1 20.4 27.9 1.1 16.9-32.2h7.7c1.3 0 3.1.2 3.1 1.7s-.8 2.1-1.4 2.2zM44.4 115.7c-.1.2-.3.7-.7 1.5-.7 1.4-1.1 2.3-1.1 2.5s0 .4.1.6c-.3.7-.4 1.2-.5 1.5-.1.5-.4 2.2-.8 5-.4 2.6-.7 4.5-1 5.6v1.1c-.2.6-.4 1.2-.4 1.7v1c-.1.1-.2.3-.3.4.1.2.1.5.1.7v.4l-.1.3v1.5l-.6 4.7c-.1.1-.2.4-.3.7s-.2.4-.4.4l-.6 1.6c-.1-.1-.2-.3-.4-.4-.4.5-.9.8-1.5.8l-.5-.2c-.2.1-.3.3-.5.5l-.4-.4-.4.1c-.2-.3-.5-.8-1.2-1.3-.4-1-.8-2.8-1-5.4l1-8.4v-1.8l-.1-.2h-.4s-.2 0-.5.1-.5.1-.5.1c-.1 0-.2.1-.3.2l-.1-.1h-.3l.1.2-2 .5c-.3-.1-.5-.1-.5-.1s-.3.1-.8.2-.8.2-.8.2h-.6c-.3.3-.5.4-.8.4-.2 0-.5-.1-1-.2-.2.1-.3.2-.3.5h-3.2c-.1.1-.2.2-.2.3h-1.5v.1c0 .2-.1.4-.3.7v-.1c0-.1 0-.2.1-.3-.1-.1-.2-.2-.4-.3-.4 0-.6 0-.7.1.1.3.2.4.2.4-.1 0-.3.1-.8.4-.2-.1-.5-.1-1-.1v.3c-.2 0-.3-.1-.5-.2-.2.2-.5.3-.8.3-.3.9-.5 1.8-.5 2.8v1.5l-.2 1.2c-.1.2-.3.3-.5.3h-.1c-.1.2-.2.3-.2.4l-.8.1c-.1.1-.2.3-.3.4 0-.1-.2-.1-.4-.1-.1.1-.4.3-.7.7-.2 0-.4-.1-.5-.1-.2 0-.4 0-.5.1-.1-.1-.2-.3-.4-.4-.3 0-.6-.2-.9-.7-.5-.6-.7-.9-.8-1-.5-2.5-.8-3.8-.9-3.8v.1l.2-2v-2.8c.1-.5.4-2 .8-4.5.9-5.1 1.9-9 3-11.6 0-.6.7-1.7 2-3.2.1 0 .5-.2 1.1-.4.5.2 1.1.6 1.9 1.2.1.4.4 1.1.7 1.9.1 0 .3.1.5.2l.3 1.8.1.1c0 .2-.2.6-.6 1.1.2.2.2.4.2.6l-1.9 8.1c.2.2.5.2 1 .2h.2l9.8-.4 2.3-.3h2.1l3.4-.7c.2-.3.4-.6.5-.9 1.4-7.2 3.9-11.3 7.4-12.4l1.9 1.3c.1.1.2.2.2.4v.4c0 .2 0 .3-.1.5.2.2.3.4.5.7.1.1.2.2.3.2h.1v.9zm-27.6 16.7c-.4.2-.7.3-.7.3.3 0 .6-.1.7-.3zm73.8 7.8c-.2.1-.6.3-1.1.8v.4c-.1 0-.2 0-.5-.1-.1 0-.1.1-.2.3-.5.1-1 .3-1.6.7l-1.6.4c-.1 0-.2 0-.3-.1l-.2.2.5.5h-.3c-.3 0-.6 0-1.1-.1.2 0 .3-.1.3-.2h-.3c-.1.1-.2.2-.2.4-.1-.1-.3-.2-.5-.2v.3l-.4.2c.4 0 .7 0 .9.1-.1 0-.2.1-.2.2h-2.6c-.1 0-.1 0-.1.1l-2.3.4c.3 0 .8.1 1.5.3 0-.1.1-.2.2-.4h.3l-.1.1.4.1.3-.2c0 .1.1.2.2.3h.9c-.3 0-.6.1-1.1.3-.1 0-.2-.1-.4-.2l-.1.2c-.1 0-.2-.1-.4-.1-.1 0-.2.1-.3.2.3.1.6.1.9.1-.1 0-.3 0-.6.1-.3 0-.5.1-.6.1l.2-.2h-.6l.2.1c0 .2-.1.3-.3.3H76c-.2-.1-.3-.2-.3-.2h-.2l.1.2h-.3c-.6 0-1.4.1-2.4.2-.2-.1-.2-.2-.2-.3-.2-.1-.4-.1-.5-.1h-.6c-.5 0-.8-.1-.9-.4h-.2s-.1 0-.3.1l-2.3-.8c0-.1.1-.1.2-.1s.2 0 .2.1h.3c.1 0 .2 0 .4-.1-.3-.1-.4-.2-.6-.2-.1 0-.1 0-.2.1-.1-.1-.4-.2-1.1-.5 0 0-.1.1-.1.2h-.3c0-.1-.1-.2-.3-.3-.3-.1-.4-.2-.4-.2 0-.2-.1-.2-.1-.2.1 0 .1-.1.1-.1-.1-.1-.2-.1-.3-.1.1 0 .2 0 .2-.1l-.2-.1-.2.2c-.1-.1-.1-.1-.3-.1-.1-.1-.2-.4-.3-.6l-1-.4s0-.1.1-.2c-.1 0-.3-.2-.4-.6-.2 0-.4-.4-.8-1.1-.1-1-.2-1.8-.3-2.6l-.2-1.7c0-4.3 2.6-8.8 7.7-13.5.4-.1.8-.4 1.2-.7.4-.4.8-.6 1-.6h.1c.1-.2.4-.5.7-.9.6-.3 1.5-.8 2.7-1.5.2 0 .4.1.5.1l1.5-1 4.6-1.3h1.5c.1.2.2.5.3.8.1.1.3.3.6.5-.2.1-.3.3-.3.5v1.1l.6.6-.4.2s0 .1.1.4l-.5.4c.1 0 .4.1.7.3-.4.2-.7.3-1 .3h-.2c0 .1-.1.1-.2.2-.3 0-.8.1-1.4.2-.2.1-.8.4-1.9.9-.3.1-.8.4-1.5.7-.6.4-1.8 1-3.5 2-1 .9-1.9 1.6-2.8 2.2-.7.7-1.7 1.9-3 3.5-.1.1-.2.1-.4.2s-.3.3-.3.6c0 .1 0 .2.1.4-.2.2-.5.6-1 1.1v-.1s0 .1.1.4l-.5 1.9v1.2c0 .1.2.3.5.6s.5.4.7.4c.1.1.3.3.6.5.1 0 1 .3 2.7.8.6.1 1.3.2 2.1.2l2.9.1 3.3-.2 4.4-.5c.2 0 .3 0 .5.1l1.3-.4c.1.1.1.1.2.1l2-.5h.7l.2.2h.5c.1.1.1.2.1.4 0 0 .1.1.3.1 0 .1-.1.2-.1.3.2.1.2.2.3.2-.1.1-.3.2-.6.5v.1s0 .1.1.1h.5s-.1.2-.3.7c.1-.4.2-.3.3-.3zm-7.8 3h-.3s-.1.1-.1.3c0 0 .2-.1.4-.3zm27.6-1.1c-.1.2-.3.5-.6 1-.2 0-.3 0-.4-.1-.1 0-.3.1-.6.3l1 .5c-.1 0-.5.3-.9.7-.5.2-1.2.4-2.1.6-.3.2-.5.4-.6.8l-4.3.5c-3.1-.2-5.5-.9-7.3-2.1-1.3-1.3-2.1-2.9-2.5-4.6-.1-.2-.2-.4-.2-.6 0-1.1.5-2.4 1.4-4 1-1.7 2.2-2.8 3.5-3.3h.5c.5-.5 1.5-.9 2.8-1.2 1.2-.3 2.2-.4 3.1-.4.7 0 1.6.3 2.6.8v.4c.2 0 .5.1.8.2 0 .1.1.2.2.3 0 .4.2.9.5 1.6v.7c0 .1-.1.2-.2.3.1.1.1.2.1.4s-.1.5-.3.8c0 .2 0 .4-.1.7-.3.3-.6.9-1 1.6l-3.6 2.6c.4.2 1.3.3 2.9.4l4.2.1c.3.3.6.6 1.1 1zm-8-7.5s-.1-.1-.1-.3c-.9.3-1.4.6-1.7.8-.8.4-1.4.9-1.7 1.4.1 0 .2 0 .3.1 1.5-.6 2.6-1.3 3.2-2zm27 1.7l-.1 2.8-.5 5.5-.7 1.9c-.1.1-.3.2-.6.4h-.3c-.1 0-.2-.1-.4-.3h-.2l-.3.1c-.3-.2-.7-.5-1.2-1-.1-.4-.3-.9-.6-1.7v-1.8l.3-4.8v-1.3c0-.1-.1-.2-.2-.3-1.1.5-1.8.9-2.3 1.1l-3.4 3.6c-1.4 1.5-2.4 2.9-3.2 4.2-.3.2-.7.3-1.1.3-.1 0-.3-.1-.7-.2l-.2.3c-.1 0-.3 0-.6-.1v-.4l-.5-.3c-.1 0-.2.1-.5.2-.1-.2-.3-.6-.4-1.1 0-.7-.1-1.1-.1-1.3l.3-2.1c.1-.5.1-1 .3-1.7.1-.5.2-1.3.4-2.5.1-.9.5-2 1-3.4l.9-.4c.2 0 .4.1.7.2 0 .2.1.4.3.6.3.3.5.4.5.5.1.4.3.8.5 1 .1.3.2.8.3 1.5 1.9-1.1 3.2-2.1 3.9-3.1.2-.1.5-.3 1-.7.9-.5 1.9-1.1 2.8-1.6.5-.2 1-.3 1.3-.3.2 0 .7.3 1.5.9 1 1.3 1.6 3 2.1 5.3zm30.7-3h-.6c-.1.2-.1.3-.1.4v.1c-.2.1-.4.2-.5.2-.6.6-.9.9-1 .9h-1.4l-1.5.4c-.1 0-.3-.1-.5-.1l-2.1.4h-.5c-.2 0-.6.1-1.3.2-.4.1-1.1.2-2 .3-.4.1-1 .3-1.6.7-.5 3.1-.8 4.8-.8 5v1.3c0 .1-.1.5-.3 1.2s-.3 1.2-.3 1.3c-.4.2-1.1.5-1.9.9 0 0-.2-.2-.6-.4-.4-.3-.6-.4-.7-.4-.4-.7-.7-1.5-.8-2.4 0-.2-.1-1-.2-2.2l.3-2.7v-1l-.1-.2h-.4l-3.9.8h-.1c-.1 0-.2 0-.3-.1l-3.1.6c-.2-.1-.5-.3-1-.5-.2-.1-.5-.4-.7-.8-.1-.2-.2-.5-.4-.8-.1-1-.2-1.4-.2-1.4 0-.3.1-.7.4-1.1.2-.4.5-.6.7-.6h.1l6.1-.4 4-.9c.3-2 .7-5 1.3-9 .5-1.6 1-3 1.4-4 .4-.5.9-.9 1.4-1.2.1 0 .8.4 1.9 1.2.2 1.3.3 1.9.3 1.9l-1.4 9v1.3h2.4s.1 0 .2-.1h1.1s.2 0 .5-.1.5-.1.6-.1.3.1.5.2c.3-.1 1.2-.2 2.5-.2 0 0 .8.1 2.4.4.4.2.9.5 1.6.7v.1c0 .1 0 .3-.1.3.1.3.2.6.5.8h.1c-.1 0 0 0 .1.1zm22.2.5c-.1 0-.2.1-.4.2 0 .1 0 .2-.1.3l.3.3c-.5.1-1 .3-1.6.6l-3.1-.7c-.5 0-1.3.1-2.2.3-1.1.4-2.1.7-3 .9-1.7.7-3.3 1.4-4.8 2-1.9.9-3.1 2.2-3.6 4 0 .1.1.5.2 1.3v.5c-.1.2-.2.4-.2.5v.2c0 .1.1.3.2.3l-1.7 1.1h-.3c-.2-.1-.5-.4-.9-.7l-.5.1c-.1-.2-.3-.5-.6-.9-.1-.3-.2-.5-.3-.8l-.2-1.1v-3.5c0-.5.2-1.2.5-2.3.4-1.4.9-2.1 1.4-2.1h.5l.6.5h.3c.3 0 1.3-.6 3.1-1.7 1.2-.5 3.1-1.3 5.6-2.4.1 0 .7-.2 1.7-.7.3 0 .8-.1 1.6-.3l1.2-.2h1.7c1.2 0 2.6.8 4.1 2.4.1.1.1.2.1.4.3.3.4.6.4.9zm21.5 8.5c-.3.4-.7.9-1.2 1.5l-.6-.1c0 .1-.1.3-.3.4-.2-.1-.4-.2-.7-.4h-.1c-.3 0-.9-.4-1.9-1.1-.2-.4-.7-1.2-1.5-2.3l-4.4 3.3s0 .1.1.1l.1.1c-.1.2-.6.5-1.5.9-2.4.7-3.7 1.1-3.7 1.1-1.7 0-3.1-.7-4.1-2-.5-1.3-.7-2.2-.7-2.8 0-.4.5-1.6 1.4-3.6.8-.8 1.3-1.3 1.7-1.3.1-.1.9-.7 2.5-1.8.7-.3 1.9-.8 3.4-1.5l2.4-.6c.1 0 .4 0 .8.1h1.1c.7.3 1 .6 1 1v.1c.1.1.4.6.8 1.4h.3c.5 0 1 .2 1.4.6.7 1.2 1.4 2.3 2 3.2.9 1.6 1.5 2.8 1.7 3.7zm-8.2-5.1h-.9c-.3 0-1 .2-2.1.7l-1.9.8c-.7.4-1.5 1-2.3 1.8l-.1.2 1 .1c2.3-.6 4.1-1.5 5.4-2.9.2-.1.5-.3.9-.7zm17.2-17.2l-3 26.5c-.4 0-.8.1-1.2.3-.1 0-.2-.1-.4-.2h-.6s-.3-.3-.8-.7c-.1 0-.2.1-.4.3-.1-.2-.2-.5-.3-.8-.2-1.5-.3-2.4-.3-2.8l1.4-12.1c.4-3.3.9-7.5 1.4-12.6.1-.4.3-1 .5-1.9.2-.8.5-1.3.9-1.7l.7.1c.3.3.6.5.9.6.1.1.3.5.8 1.1.4 1.1.5 1.7.5 2v1.9z"/></svg>