<svg xmlns="http://www.w3.org/2000/svg" viewBox="0 0 136 158"><path fill="#3c3b39" d="M111.2 11.6C73 12.3 28.4 7 28.4 7c-3.9 15.3-1.8 85.1-1.8 85.1 24.2-.9 82.8 3.7 82.8 3.7-1.9-54.8 1.8-84.2 1.8-84.2zM54.7 77.5c-2.8 0-5.1-2-5.1-4.5s2.3-4.5 5.1-4.5 5.1 2 5.1 4.5-2.3 4.5-5.1 4.5zm18.6 1c-2.8 0-5.1-2-5.1-4.5s2.3-4.5 5.1-4.5 5.1 2 5.1 4.5-2.2 4.5-5.1 4.5zm30.5-44.1c-.5.1-6.4 0-6.4 0S81.6 65 81.3 65.7s-1 1.3-2.2 1.4-29.6-1.1-30.6-1.3-1.6 0-2.9-2.3-13.4-23.7-13.4-25c0-1.6.9-2.3 1.9-2.2 4.4.1 45.2 2.2 48.1 2.3s3.7.9 3.6 2.7c-.1 1.3-1.1 1.6-1.7 1.7h-.3.3c-.9-.2-44.6-1.7-44.6-1.7l10.1 20.4 27.9 1.1 16.9-32.2h7.7c1.3 0 3.1.2 3.1 1.7s-.8 2.1-1.4 2.1zM45.6 120c-.1.2-.3.7-.8 1.5-.8 1.5-1.1 2.3-1.1 2.6 0 .2 0 .4.1.6-.3.7-.4 1.2-.5 1.5-.1.5-.4 2.2-.9 5.1-.4 2.7-.8 4.6-1.1 5.8v1.2c-.3.7-.4 1.2-.4 1.8v1c-.1.1-.2.3-.3.4.1.2.1.5.1.8v.4l-.1.3v1.5l-.7 4.8c-.1.1-.2.4-.3.7s-.2.4-.4.4l-.7 1.6c-.1-.1-.2-.3-.4-.4-.4.5-.9.8-1.5.8l-.5-.2c-.2.1-.3.3-.5.5l-.4-.4-.4.2c-.2-.4-.6-.8-1.2-1.3-.4-1-.8-2.8-1-5.5l1.1-8.6v-1.8l-.2-.2H33s-.2 0-.5.1-.5.1-.6.1-.2.1-.3.3l-.1-.1h-.3l.1.2-2.1.5c-.3-.1-.5-.2-.5-.2s-.3.1-.8.2-.8.2-.8.2h-.6c-.3.3-.6.4-.8.4s-.5-.1-1-.2c-.2.1-.3.2-.3.5h-3.3c-.1.1-.2.2-.2.3h-1.5v.1c0 .2-.1.4-.3.7v-.1c0-.1 0-.2.1-.3-.1-.1-.2-.2-.4-.3-.4 0-.6 0-.7.1.1.3.2.4.2.4-.1 0-.4.1-.8.4-.2-.1-.5-.1-1-.1v.3c-.2 0-.3-.1-.5-.2-.2.2-.5.3-.8.3-.3.9-.5 1.8-.5 2.9v1.5l-.2 1.2c-.1.2-.3.3-.5.3h-.2c-.1.2-.2.3-.2.4l-.8.2c-.1.1-.2.3-.3.4 0-.1-.2-.2-.4-.2-.1.1-.4.3-.7.7-.2 0-.4-.1-.6-.1s-.4 0-.6.1l-.4-.4c-.3 0-.6-.3-1-.7-.5-.6-.8-.9-.9-1-.5-2.6-.8-3.9-.9-3.9v.1l.2-2v-2.9c.1-.5.4-2.1.8-4.6 1-5.2 2-9.2 3.1-11.9 0-.7.7-1.7 2-3.3.1 0 .5-.2 1.1-.4.5.2 1.2.6 1.9 1.2.1.4.4 1.1.7 2 .1 0 .3.1.5.2l.3 1.9s.1.1.1.2c0 .2-.2.6-.6 1.2.2.2.2.4.2.7l-1.9 8.2c.2.2.5.2 1 .2h.2l10-.4 2.3-.3h2.2l3.5-.7c.3-.3.4-.6.5-1 1.5-7.4 4-11.6 7.6-12.6l2 1.3c.1.1.2.2.2.4v.4c0 .2 0 .3-.1.5.2.2.3.4.5.7.1.1.2.2.3.2h.1v.6zm-28.2 17.2c-.5.2-.7.3-.7.3.3 0 .5-.1.7-.3zm43 6.3l-.5 1.5-1.4 2c0 .1.1.3.3.7s.2.6.2.8c0 .1 0 .2-.1.3s-.2.3-.3.4c-.5.1-.7.2-.7.2l-.6-.1-.2.2-1-.4-1.8.9c-.1.1-.2.2-.3.4-.3.2-.8.4-1.4.7-.1 0-.6.2-1.3.5-.5.1-1.3.2-2.3.4l-2.5-.5c0-.1-.1-.3-.3-.4-.1-.1-.3-.3-.5-.4-.4-.8-.6-1.4-.6-1.9v-.1c-.1-.1-.1-.3-.1-.4 0 0 .1-.4.2-1.2 1.1-1.5 2.1-2.6 2.9-3.3.5-.4 1-.9 1.3-1.3-.9-1.9-1.3-3.3-1.3-4.2 0-.4 0-.6.1-.8.1-.3.2-.7.4-1 .3-.4.8-1 1.5-1.7.4-.4 1-.9 1.8-1.4l.2-.2c.3-.1.8-.3 1.4-.6l.2-.2c.3-.1.7-.3 1.3-.4.2-.1.7-.2 1.5-.3.7.1 1.3.5 1.9 1.1 0 .1.1.3.2.6s.3.4.5.5c.1.1.1.4.1.8s-.1.8-.2 1.2v.1c0 .1 0 .3.1.4l-.8 1.8c-.2.3-.4.7-.5 1.2-.2.3-.4.6-.7 1.1-.4.8-1.1 1.6-2 2.3-.2.2-.5.6-.9 1.1.2.5.6.9 1.1 1.3h.2l2.9-2.5c.2-.1.6-.2 1.1-.4.1.1.2.2.3.4h.2v.2l.3.4v.1c0 .1-.1.2-.2.4.1-.4.2-.3.3-.3zm-7.2 2.9v-.2c-.1-.1-.4-.2-.6-.5-.2-.2-.4-.3-.5-.3-.4.2-.9.6-1.5 1.2l-1.3 1.3-.1.3h.3s.7-.2 2.1-.7c.4-.3.9-.7 1.6-1.1zm2.8-11.5s-.1 0 0 0c-.8 0-1.9.7-3.4 2.2l-.9 1.1c-.2.7-.3 1.1-.3 1.1 0 .2.1.6.4 1.3h.3c1.3-1.3 2.5-2.8 3.5-4.5 0-.6.1-.9.4-1.2zm31.2 6l-.7 1.7-.1-.2c-.1.8-.5 1.5-1.2 2.2-.5.6-1.1 1-1.8 1.3-.4.3-.9.6-1.3 1.1-.2 0-.4.1-.7.2h-.5c-.2.2-.3.4-.3.7-.1 0-.2.1-.4.3-.1-.1-.2-.1-.4-.1l-7.7 3.3c-.1 0-.2-.1-.4-.2l-2.7.8c-.4-.2-.9-.3-1.4-.3-.1 0-.2.1-.4.2 0-.1.1-.2.2-.3-.1 0-.1-.1-.2-.1v-.4c-.2-.1-.6-.3-1.2-.5v-1.2l-.4-.4c.1-.2.3-.5.3-.9 0-.2.1-.4.1-.7-.2-.4-.5-.9-.9-1.6-.2-.4-.4-.9-.7-1.7l-.5-2.2v-1.1l-.3-2.4-.1-1.9.3-4.7-.2-1.5c-.2.1-.4.2-.5.2-.2 0-.3-.1-.5-.2v-.5c-.3.3-.5.5-.5.6-.3-.1-.6-.5-1-.9l-.5-.2c.1-.2.2-.4.2-.8l-.1-.2c-.1.1-.2.1-.3.1v-1.2c.1 0 .2-.2.2-.5 0-.2 0-.5-.1-.9.9-.6 2.1-1.5 3.7-2.9.2-1.3.7-1.9 1.5-1.9.3 0 .7.2 1.1.5h.8l4.6-1.6h.2c.2 0 .5-.1.8-.2.6-.2 1-.3 1.1-.3 1.8-.3 3.1-.4 3.8-.4h1.3c.1.1.4.2.7.3.8.2 1.6.7 2.3 1.6s1 1.7 1 2.4c0 .8-.1 1.4-.3 2 0 .3 0 .8-.1 1.4-.6 1.7-2.1 3.6-4.5 5.7 0 0 .1.1.1.2 1.6.5 3.2 1.2 4.7 2.2 1.8 1.2 2.9 2.5 3.2 3.7.1.6.3 1.2.7 2.4zm-6.3-.9c-.5-.4-1.3-.8-2.4-1.2-.4-.3-1.4-.5-2.8-.7-.4-.2-.7-.3-.9-.3l-6.5.5.1.1c0 .3-.1.8-.1 1.4l.3 1.7c.2 1 .5 2 1 3-.1.1-.2.2-.4.3v.5c.1 0 .2.1.2.2.8-.1 1.9-.5 3.2-1l3.3-1.4c.5-.1 2-.9 4.5-2.3.3-.4.4-.7.5-.8zm-3.1-14.4v-.8h-1.7l-2.4.4c-.2.1-.3.2-.3.2h-.3c-.1 0-.4.1-.9.4h-.8c-.4.3-1.1.6-1.8.9-.2.1-.4.4-.8.6v.1c0 .2-.1.4-.2.5-.1.5-.2 1-.2 1.5v.5l.1 1.7c4.4-2 7.5-4 9.3-6zm32.2 17c0 .9-.3 1.6-.8 2.2 0 .1-.1.3-.2.7-.4.5-1 1.3-1.8 2.2-1.3.8-2.5 1.6-3.6 2.3-2.6.9-4.6 1.3-5.9 1.3h-1.1c-.1 0-.3-.1-.4-.2h-.1c-.3 0-1.2-.2-2.7-.7-.6-.4-1.5-1.1-2.7-2-.2-.3-.4-.8-.8-1.5-.4-1.4-.6-2.4-.6-3.1l.2-1.6v-2.5c0-.1.2-.5.3-1.1.2-.7.3-1.2.4-1.5.2-.6 1.1-1.4 2.6-2.4.3-.1.7-.2 1.2-.3.1-.1.3-.2.6-.3 0 0 .1.1.2.1l1-.3c.6-.2 1.2-.3 1.7-.3h3.3c.4 0 .8.1 1.3.3h.1c.8 0 2.4.7 4.7 2.2v.3c.4.4.9.7 1.5 1.1.2.3.7 1.2 1.5 2.8 0 .8.1 1.6.1 2.3zm-3.9-1.1v-.5c-.9-1.5-1.8-2.2-2.5-2.2h-.4c-.2-.3-.7-.5-1.6-.5h-.3l-1.9.1-4.2.8-.2.3v.6c0 .1.1.3.2.5 0 .1-.1.2-.3.4l.2.4c-.2.2-.4.3-.5.3 0 0-.2.3-.5.9s-.5.9-.5 1.1c0 0 0 .2.1.4.3.4.9.8 1.7 1.1s1.5.5 2.1.5c1.3-.3 2.1-.4 2.4-.4l2.8-1.1c1.3-.5 2.2-1 2.7-1.5.4-.4.7-.9.7-1.2zm23.6-.4l-.1 2.8-.5 5.6-.7 2c-.1.1-.3.2-.6.4h-.3c-.1 0-.2-.1-.4-.3h-.2l-.3.1c-.3-.2-.7-.5-1.2-1-.1-.4-.3-.9-.6-1.7v-1.8l.3-4.9V141c0-.1-.1-.2-.2-.3-1.1.5-1.9.9-2.3 1.2l-3.5 3.7c-1.4 1.5-2.5 3-3.2 4.3-.3.2-.7.3-1.1.3-.1 0-.3-.1-.7-.2l-.2.3c-.1 0-.3 0-.6-.1v-.4l-.5-.3c-.1 0-.2.1-.5.2-.1-.2-.3-.6-.4-1.1 0-.7-.1-1.1-.1-1.3l.3-2.2c.1-.5.2-1.1.3-1.7.1-.5.2-1.4.4-2.5.1-.9.5-2 1-3.5l.9-.4c.2 0 .4.1.7.2 0 .2.1.4.3.7.3.3.5.4.5.5.1.4.3.8.5 1.1.1.3.2.8.3 1.5 1.9-1.1 3.3-2.2 4-3.2.2-.1.5-.3 1-.7 1-.6 1.9-1.1 2.9-1.6.6-.2 1-.3 1.3-.3.2 0 .7.3 1.6.9.8.9 1.4 2.7 1.9 5z"/></svg>